<?xml version="1.0" encoding="utf-8"?>
<svg id="master-artboard" viewBox="0 0 241.52574157714844 241.52574157714844" version="1.1" xmlns="http://www.w3.org/2000/svg" x="0px" y="0px" style="enable-background:new 0 0 1400 980;" width="241.52574157714844" height="241.52574157714844px"><rect id="ee-background" x="0" y="0" width="241.52574157714844" height="241.52574157714844" style="fill: white; fill-opacity: 0; pointer-events: none;"/><g transform="matrix(3.500000238418579, 0, 0, 3.500000238418579, 0.00001888830774987582, 26.262847900390625)"><title>ILOVELAMP-white-01</title><g>
	<path class="st0" d="M116.1,18.3c0,3.2-1.2,6.4-3.7,8.8l-21,21l-21-21c-4.9-4.9-4.9-12.8,0-17.7c2.4-2.4,5.6-3.7,8.9-3.7&#10;&#9;&#9;c3.2,0,6.4,1.2,8.8,3.7l3.3,3.3l3.3-3.3c4.9-4.9,12.8-4.9,17.7,0C114.8,11.9,116.1,15.1,116.1,18.3z" style="fill: rgb(224, 25, 7);"/>
</g></g></svg>
